<?xml version="1.0" standalone="no"?>
<!DOCTYPE svg PUBLIC "-//W3C//DTD SVG 20010904//EN"
 "http://www.w3.org/TR/2001/REC-SVG-20010904/DTD/svg10.dtd">
<svg version="1.0" xmlns="http://www.w3.org/2000/svg"
 width="700.000000pt" height="700.000000pt" viewBox="0 0 700.000000 700.000000"
 preserveAspectRatio="xMidYMid meet">
<metadata>
Created by potrace 1.11, written by Peter Selinger 2001-2013
</metadata>
<g transform="translate(0.000000,700.000000) scale(0.100000,-0.100000)"
fill="#000000" stroke="none">
<path d="M2670 6470 c-309 -30 -574 -217 -709 -501 -65 -135 -84 -221 -83
-379 0 -74 5 -151 9 -170 l9 -35 84 0 c47 0 107 4 134 9 48 8 48 8 41 39 -40
184 -10 358 87 503 188 282 579 359 858 171 59 -40 152 -120 331 -284 314
-287 602 -497 903 -657 l108 -58 63 69 c84 92 118 133 114 137 -2 2 -51 27
-109 57 -316 164 -588 362 -982 716 -120 107 -237 209 -260 226 -59 43 -181
101 -260 125 -59 19 -94 24 -228 36 -19 1 -69 0 -110 -4z"/>
<path d="M4035 6454 c-137 -30 -296 -111 -391 -199 l-54 -50 87 -75 c47 -41
92 -79 100 -83 9 -5 28 4 56 28 54 46 164 100 247 121 95 24 251 15 350 -19
247 -87 410 -316 412 -578 1 -119 -13 -181 -65 -289 l-40 -85 -623 -625 -624
-625 -487 486 -488 486 -70 -22 c-38 -12 -99 -27 -135 -35 -36 -7 -68 -16 -72
-19 -11 -10 1192 -1208 1225 -1220 18 -7 36 -7 55 0 29 11 1233 1206 1361
1352 130 147 200 303 220 494 26 233 -43 464 -193 648 -110 136 -249 232 -416
287 -85 28 -110 31 -240 34 -104 3 -165 -1 -215 -12z"/>
<path d="M3160 5778 c-146 -131 -329 -257 -492 -339 -269 -135 -493 -190 -778
-191 -169 -1 -268 10 -432 48 -138 31 -192 32 -212 2 -21 -29 -20 -68 3 -224
11 -71 25 -181 31 -244 6 -63 13 -122 15 -130 6 -20 26 -32 121 -71 335 -138
563 -372 650 -666 35 -119 44 -317 20 -448 -34 -183 -119 -387 -249 -599 -36
-58 -60 -110 -60 -126 0 -94 341 -384 610 -519 276 -138 544 -212 868 -241 66
-5 133 -6 150 -2 31 9 35 17 69 133 32 112 100 182 225 231 48 19 76 22 196
22 184 1 291 -23 585 -129 l75 -27 130 66 c204 103 382 243 486 381 57 76 57
89 6 191 -176 350 -229 617 -176 877 44 218 126 383 431 865 165 263 187 307
169 350 -18 43 -58 60 -218 92 -81 16 -164 34 -183 40 -56 16 -63 13 -104 -51
-22 -34 -57 -82 -78 -107 -21 -26 -38 -50 -38 -53 0 -4 59 -21 130 -39 72 -18
130 -34 130 -37 0 -3 -44 -75 -98 -161 -253 -403 -358 -627 -403 -857 -21
-106 -18 -388 5 -495 25 -117 78 -275 133 -398 l46 -103 -34 -35 c-52 -54
-165 -137 -259 -192 l-85 -49 -95 33 c-481 166 -856 137 -1078 -84 -37 -38
-82 -96 -101 -131 l-34 -64 -62 6 c-342 32 -760 213 -1023 443 l-71 61 47 84
c180 322 264 655 234 927 -30 267 -131 489 -312 685 -122 131 -257 233 -425
319 l-82 42 -7 69 c-4 39 -4 72 -2 74 2 3 40 -1 83 -8 120 -20 435 -17 567 4
198 34 410 104 599 198 171 86 413 254 561 391 l68 63 -99 86 -98 86 -55 -49z"/>
<path d="M1633 1780 c-18 -7 -23 -17 -23 -44 0 -35 12 -46 54 -46 30 0 46 18
46 52 0 21 -6 31 -26 38 -14 6 -26 10 -27 9 -1 0 -12 -4 -24 -9z"/>
<path d="M520 1555 l0 -205 50 0 50 0 0 75 c0 67 2 75 19 75 29 0 67 -36 103
-96 l33 -54 57 0 c32 0 58 3 58 8 0 11 -69 113 -98 145 -25 26 -25 27 -5 27
12 0 33 14 47 31 21 25 26 41 26 86 0 47 -4 59 -29 84 l-29 29 -141 0 -141 0
0 -205z m218 116 c8 -5 12 -23 10 -47 l-3 -39 -62 -3 -63 -3 0 51 0 50 53 0
c28 0 58 -4 65 -9z"/>
<path d="M1045 1720 l-39 -40 39 0 c32 0 49 8 85 40 l45 39 -45 1 c-41 0 -51
-5 -85 -40z"/>
<path d="M991 1647 c-48 -24 -66 -62 -66 -141 0 -119 42 -161 162 -161 83 0
98 9 88 55 l-7 32 -57 -7 c-47 -5 -61 -3 -74 10 -10 9 -17 21 -17 26 0 5 41 9
90 9 l90 0 0 55 c0 66 -15 102 -51 121 -34 17 -125 18 -158 1z m117 -69 c26
-26 13 -38 -38 -38 -54 0 -55 1 -40 31 12 22 59 26 78 7z"/>
<path d="M1309 1645 c-43 -24 -62 -77 -57 -161 3 -44 12 -83 21 -98 22 -33 85
-50 132 -37 28 7 35 7 35 -4 0 -26 -40 -38 -106 -32 l-63 6 -6 -30 c-10 -46 5
-54 105 -54 150 0 169 28 169 257 l1 147 -37 10 c-54 15 -163 13 -194 -4z
m122 -65 c5 0 9 -33 9 -74 0 -69 -1 -74 -23 -78 -13 -3 -34 -1 -45 3 -20 7
-22 16 -22 74 0 59 2 67 23 75 12 5 28 7 35 4 8 -2 18 -4 23 -4z"/>
<path d="M1617 1654 c-4 -4 -7 -74 -7 -156 l0 -148 50 0 51 0 -3 153 -3 152
-40 3 c-23 2 -44 0 -48 -4z"/>
<path d="M1833 1650 c-40 -16 -63 -68 -63 -142 0 -110 28 -152 110 -163 60 -8
120 8 151 41 20 22 24 37 27 103 5 90 -11 132 -58 156 -32 16 -131 19 -167 5z
m117 -76 c14 -16 18 -122 6 -142 -13 -21 -74 -14 -87 9 -15 29 -7 128 12 140
22 14 55 11 69 -7z"/>
<path d="M2165 1646 l-40 -12 -3 -142 -3 -142 51 0 50 0 0 109 c0 112 3 121
45 121 35 0 45 -29 45 -131 l0 -99 50 0 50 0 0 79 c0 114 -15 181 -46 209 -21
18 -36 22 -92 21 -37 0 -85 -6 -107 -13z"/>
<path d="M3180 1021 l0 -78 -67 4 c-86 5 -128 -14 -162 -76 -33 -60 -36 -195
-6 -255 33 -66 63 -81 168 -84 54 -1 112 3 142 11 l50 13 3 272 2 272 -65 0
-65 0 0 -79z m-26 -181 c25 -9 26 -12 26 -105 l0 -95 -27 -1 c-82 -4 -103 17
-103 103 0 49 4 63 25 83 26 27 41 30 79 15z"/>
<path d="M520 810 l0 -270 65 0 65 0 0 110 0 110 100 0 100 0 0 -110 0 -110
65 0 65 0 0 270 0 270 -65 0 -65 0 0 -95 0 -95 -100 0 -100 0 0 95 0 95 -65 0
-65 0 0 -270z"/>
<path d="M4090 810 l0 -270 65 0 65 0 0 100 0 100 100 0 100 0 0 55 0 55 -100
0 -100 0 0 60 0 60 135 0 135 0 0 55 0 55 -200 0 -200 0 0 -270z"/>
<path d="M2070 1024 c-48 -19 -55 -26 -58 -53 -3 -28 -7 -31 -38 -31 l-34 0 0
-55 0 -55 34 0 34 0 4 -121 3 -121 34 -30 c33 -30 36 -30 118 -26 46 2 88 9
93 14 7 7 7 26 2 50 -8 39 -8 39 -60 42 -64 4 -72 18 -72 123 l0 69 65 0 65 0
0 55 0 55 -65 0 -64 0 -3 53 -3 53 -55 -22z"/>
<path d="M1124 939 l-41 -10 10 -50 c9 -47 12 -50 36 -45 112 22 174 14 179
-22 3 -21 0 -22 -82 -22 -81 0 -88 -2 -118 -29 -31 -28 -33 -33 -33 -100 0
-64 3 -73 28 -98 27 -27 30 -28 140 -28 64 0 131 6 156 13 l43 13 -4 150 c-5
166 -12 188 -79 221 -38 20 -162 23 -235 7z m174 -239 c7 0 12 -14 12 -35 0
-31 -3 -35 -37 -41 -44 -8 -67 4 -71 40 -4 29 27 49 63 41 11 -3 26 -5 33 -5z"/>
<path d="M2374 936 c-50 -22 -74 -61 -74 -120 0 -82 24 -103 143 -126 51 -10
58 -14 55 -33 -3 -21 -8 -22 -90 -20 l-87 2 -11 -37 c-5 -20 -10 -40 -10 -44
0 -13 75 -28 143 -28 120 0 177 42 177 132 0 83 -18 100 -130 128 -52 13 -65
20 -65 36 0 17 8 19 84 19 82 0 85 1 92 25 14 50 10 59 -28 69 -53 15 -162 13
-199 -3z"/>
<path d="M3473 929 c-59 -29 -84 -84 -85 -184 0 -86 27 -154 75 -189 34 -25
159 -34 226 -16 41 11 42 12 36 43 -14 67 -10 64 -73 56 -84 -12 -132 4 -132
42 0 18 9 19 121 19 l122 0 -6 71 c-11 134 -56 179 -177 179 -46 0 -77 -6
-107 -21z m161 -95 c12 -30 6 -34 -54 -34 -61 0 -75 11 -48 38 18 18 95 15
102 -4z"/>
<path d="M4696 943 c-4 -4 -43 -6 -86 -4 l-80 2 0 -200 0 -201 65 0 65 0 0
139 0 139 35 12 c19 6 49 9 65 5 l30 -7 0 61 0 61 -43 0 c-24 0 -47 -3 -51 -7z"/>
<path d="M4887 941 c-20 -4 -40 -10 -43 -14 -3 -3 -2 -25 3 -49 8 -38 12 -43
33 -41 14 2 56 4 93 5 58 3 71 0 83 -16 8 -11 14 -23 14 -27 0 -4 -43 -9 -96
-11 -89 -3 -97 -5 -119 -30 -29 -34 -40 -103 -23 -154 20 -61 59 -76 183 -71
55 3 117 10 138 16 l37 12 0 132 c0 221 -20 250 -175 254 -49 1 -107 -2 -128
-6z m166 -241 c13 0 17 -8 17 -34 0 -31 -3 -34 -35 -40 -61 -12 -90 8 -78 52
6 23 27 32 58 26 11 -2 28 -4 38 -4z"/>
<path d="M5343 933 l-63 -16 0 -189 0 -188 65 0 65 0 0 144 c0 155 0 156 55
156 48 0 55 -20 55 -166 l0 -134 66 0 66 0 -4 158 c-3 175 -10 195 -71 232
-40 25 -143 26 -234 3z"/>
<path d="M5820 928 c-64 -32 -90 -87 -90 -188 0 -143 61 -210 191 -210 129 0
139 7 119 81 l-10 36 -68 -4 c-37 -2 -73 0 -81 5 -19 13 -30 84 -21 133 4 23
14 46 21 51 8 5 44 7 81 5 l68 -4 10 36 c16 60 14 68 -27 75 -78 12 -148 7
-193 -16z"/>
<path d="M6180 928 c-64 -33 -85 -80 -85 -188 1 -95 14 -131 65 -173 38 -33
83 -41 174 -34 104 8 105 9 93 67 -9 46 -11 49 -34 44 -13 -4 -49 -7 -79 -8
-47 -1 -59 3 -75 23 -10 13 -19 27 -19 32 0 5 54 9 120 9 l120 0 0 65 c0 92
-22 143 -74 166 -59 27 -150 25 -206 -3z m158 -90 c27 -27 13 -38 -48 -38 -61
0 -75 11 -48 38 16 16 80 16 96 0z"/>
<path d="M1522 788 c5 -171 15 -203 71 -239 28 -18 44 -20 127 -15 52 2 112 9
133 16 l37 11 0 189 0 190 -60 0 -60 0 0 -144 c0 -157 0 -156 -60 -156 -54 0
-60 18 -60 166 l0 134 -66 0 -66 0 4 -152z"/>
<path d="M2660 760 l0 -60 105 0 105 0 0 60 0 60 -105 0 -105 0 0 -60z"/>
<path d="M3800 760 l0 -60 105 0 105 0 0 60 0 60 -105 0 -105 0 0 -60z"/>
</g>
</svg>
